<svg xmlns:xlink="http://www.w3.org/1999/xlink" xmlns="http://www.w3.org/2000/svg" class="icon icon-mail" width="103.6"  height="66.6" ><defs><symbol viewBox="4.2 0 103.6 66.6" id="mail" xmlns="http://www.w3.org/2000/svg"><path d="M96.7 66.6H15.3c-5.92 0-11.1-4.44-11.1-10.36V10.36C4.2 4.44 9.38 0 15.3 0h81.4c5.92 0 11.1 4.44 11.1 10.36v45.88c0 5.92-5.18 10.36-11.1 10.36zM15.3 7.4c-2.22 0-3.7 1.48-3.7 2.96v45.88c0 1.48 1.48 2.96 3.7 2.96h81.4c2.22 0 3.7-1.48 3.7-2.96V10.36c0-1.48-1.48-2.96-3.7-2.96H15.3z"></path><path d="M56 51.8L10.12 9.62 15.3 3.7 56 42.18 98.18 2.96l5.18 5.92z"></path></symbol></defs><use xlink:href="#mail" fill="#1E0F00"></use></svg>