<?xml version="1.0" encoding="utf-8"?>
<!-- Generator: Adobe Illustrator 24.1.0, SVG Export Plug-In . SVG Version: 6.00 Build 0)  -->
<svg version="1.1" id="Слой_1" xmlns="http://www.w3.org/2000/svg" xmlns:xlink="http://www.w3.org/1999/xlink" x="0px" y="0px"
	 viewBox="0 0 88.05 17.75" style="enable-background:new 0 0 88.05 17.75;" xml:space="preserve">
<g>
	<path d="M7.69,4.82h-4.2v2.14h4.12V9.4H3.49v4.07H0.95V2.38h6.74V4.82z"/>
	<path d="M11.31,4.43c-0.28,0.28-0.62,0.42-1.01,0.42c-0.39,0-0.73-0.14-1.01-0.42S8.87,3.81,8.87,3.42c0-0.39,0.14-0.73,0.42-1.01
		S9.91,2,10.3,2c0.39,0,0.73,0.14,1.01,0.42s0.42,0.62,0.42,1.01C11.73,3.81,11.59,4.15,11.31,4.43z M9.11,13.47V5.55h2.38v7.92
		H9.11z"/>
	<path d="M17.88,5.32c0.85,0,1.55,0.29,2.12,0.87c0.56,0.58,0.85,1.38,0.85,2.41v4.87h-2.38V8.95c0-0.46-0.13-0.82-0.39-1.07
		c-0.26-0.25-0.59-0.37-0.99-0.37c-0.45,0-0.81,0.14-1.08,0.41c-0.26,0.27-0.4,0.68-0.4,1.22v4.33h-2.38V5.55h2.38v0.74
		C16.08,5.65,16.84,5.32,17.88,5.32z"/>
	<path d="M24.72,7.86c0,0.16,0.13,0.29,0.4,0.39c0.27,0.1,0.59,0.2,0.97,0.3c0.38,0.1,0.76,0.23,1.14,0.39
		c0.38,0.16,0.71,0.42,0.97,0.78c0.27,0.36,0.4,0.82,0.4,1.37c0,0.86-0.32,1.5-0.95,1.94c-0.63,0.44-1.42,0.66-2.35,0.66
		c-1.67,0-2.81-0.63-3.41-1.89l2.06-1.17c0.21,0.62,0.66,0.94,1.35,0.94c0.57,0,0.86-0.16,0.86-0.49c0-0.16-0.13-0.29-0.4-0.4
		s-0.59-0.21-0.97-0.31s-0.76-0.23-1.14-0.4c-0.38-0.16-0.71-0.42-0.97-0.77s-0.4-0.78-0.4-1.28c0-0.82,0.3-1.46,0.9-1.92
		c0.6-0.45,1.33-0.68,2.21-0.68c0.65,0,1.25,0.15,1.79,0.44c0.54,0.29,0.97,0.71,1.3,1.26l-2.03,1.09c-0.25-0.46-0.61-0.7-1.06-0.7
		C24.94,7.42,24.72,7.56,24.72,7.86z"/>
	<path d="M34.21,7.83h-1.63v2.8c0,0.32,0.13,0.52,0.38,0.6c0.25,0.08,0.67,0.11,1.25,0.08v2.16c-1.51,0.16-2.56,0.01-3.14-0.44
		c-0.58-0.45-0.87-1.25-0.87-2.4v-2.8h-1.27V5.55h1.27V4.04l2.38-0.71v2.22h1.63V7.83z"/>
	<path d="M38.1,6.96c0.15-0.51,0.45-0.9,0.9-1.16s0.94-0.4,1.48-0.4v2.69c-0.58-0.1-1.12,0-1.62,0.29c-0.5,0.29-0.75,0.8-0.75,1.51
		v3.58h-2.38V5.55h2.38V6.96z"/>
	<path d="M46.7,5.55h2.38v7.92H46.7v-0.74c-0.48,0.64-1.23,0.97-2.27,0.97c-0.85,0-1.55-0.29-2.12-0.87
		c-0.56-0.58-0.85-1.38-0.85-2.41V5.55h2.38v4.52c0,0.46,0.13,0.82,0.39,1.07c0.26,0.25,0.59,0.37,0.99,0.37
		c0.46,0,0.81-0.14,1.08-0.41c0.26-0.27,0.4-0.68,0.4-1.22V5.55z"/>
	<path d="M59.7,5.32c0.91,0,1.64,0.3,2.19,0.9c0.55,0.6,0.82,1.39,0.82,2.39v4.87h-2.38V8.81c0-0.4-0.1-0.72-0.29-0.95
		c-0.2-0.23-0.48-0.35-0.85-0.35c-0.39,0-0.7,0.13-0.91,0.4C58.06,8.17,57.95,8.54,57.95,9v4.47h-2.38V8.81
		c0-0.4-0.1-0.72-0.29-0.95c-0.2-0.23-0.48-0.35-0.85-0.35c-0.39,0-0.7,0.13-0.91,0.4C53.31,8.17,53.2,8.54,53.2,9v4.47h-2.38V5.55
		h2.38v0.73c0.43-0.63,1.14-0.95,2.12-0.95c0.92,0,1.61,0.35,2.08,1.05C57.89,5.67,58.65,5.32,59.7,5.32z"/>
	<path d="M66.46,10.46c0.27,0.74,0.91,1.11,1.9,1.11c0.64,0,1.15-0.2,1.52-0.6l1.9,1.09c-0.78,1.09-1.93,1.63-3.46,1.63
		c-1.33,0-2.4-0.4-3.19-1.19s-1.2-1.79-1.2-3c0-1.19,0.39-2.19,1.18-2.99s1.8-1.2,3.04-1.2c1.15,0,2.11,0.4,2.88,1.2
		c0.77,0.8,1.15,1.79,1.15,2.99c0,0.34-0.03,0.66-0.09,0.95H66.46z M66.42,8.68h3.41c-0.23-0.83-0.79-1.25-1.68-1.25
		C67.23,7.43,66.65,7.85,66.42,8.68z"/>
	<path d="M78.18,5.32c0.85,0,1.55,0.29,2.12,0.87c0.56,0.58,0.85,1.38,0.85,2.41v4.87h-2.38V8.95c0-0.46-0.13-0.82-0.39-1.07
		c-0.26-0.25-0.59-0.37-0.99-0.37c-0.45,0-0.81,0.14-1.08,0.41c-0.26,0.27-0.4,0.68-0.4,1.22v4.33h-2.38V5.55h2.38v0.74
		C76.39,5.65,77.14,5.32,78.18,5.32z"/>
	<path d="M87.42,7.83h-1.63v2.8c0,0.32,0.13,0.52,0.38,0.6c0.25,0.08,0.67,0.11,1.25,0.08v2.16c-1.51,0.16-2.56,0.01-3.14-0.44
		c-0.58-0.45-0.87-1.25-0.87-2.4v-2.8h-1.27V5.55h1.27V4.04l2.38-0.71v2.22h1.63V7.83z"/>
</g>
</svg>
